<svg xmlns="http://www.w3.org/2000/svg" xmlns:svg="http://www.w3.org/2000/svg" id="svg3100" width="6631.62" height="1081.612" version="1.1" viewBox="0 0 1754.616 286.177"><defs id="defs3094"><clipPath id="clipPath850" clipPathUnits="userSpaceOnUse"><rect style="fill:#3f51b5;fill-opacity:.13333333;stroke:none;stroke-width:7;stroke-miterlimit:4;stroke-dasharray:none;stroke-opacity:.22613065" id="rect852" width="272.4" height="275.593" x="-.761" y="-109.979"/></clipPath><clipPath id="clipPath854" clipPathUnits="userSpaceOnUse"><rect style="fill:#3f51b5;fill-opacity:.13333333;stroke:none;stroke-width:7;stroke-miterlimit:4;stroke-dasharray:none;stroke-opacity:.22613065" id="rect856" width="272.4" height="275.593" x="-.761" y="-109.979"/></clipPath><clipPath id="clipPath858" clipPathUnits="userSpaceOnUse"><rect style="fill:#3f51b5;fill-opacity:.13333333;stroke:none;stroke-width:7;stroke-miterlimit:4;stroke-dasharray:none;stroke-opacity:.22613065" id="rect860" width="272.4" height="275.593" x="-.761" y="-109.979"/></clipPath><clipPath id="clipPath862" clipPathUnits="userSpaceOnUse"><rect style="fill:#3f51b5;fill-opacity:.13333333;stroke:none;stroke-width:7;stroke-miterlimit:4;stroke-dasharray:none;stroke-opacity:.22613065" id="rect864" width="272.4" height="275.593" x="-.761" y="-109.979"/></clipPath><clipPath id="clipPath866" clipPathUnits="userSpaceOnUse"><rect style="fill:#3f51b5;fill-opacity:.13333333;stroke:none;stroke-width:7;stroke-miterlimit:4;stroke-dasharray:none;stroke-opacity:.22613065" id="rect868" width="272.4" height="275.593" x="-.761" y="-109.979"/></clipPath><clipPath id="clipPath870" clipPathUnits="userSpaceOnUse"><rect style="fill:#3f51b5;fill-opacity:.13333333;stroke:none;stroke-width:7;stroke-miterlimit:4;stroke-dasharray:none;stroke-opacity:.22613065" id="rect872" width="272.4" height="275.593" x="-.761" y="-109.979"/></clipPath><clipPath id="clipPath874" clipPathUnits="userSpaceOnUse"><rect style="fill:#3f51b5;fill-opacity:.13333333;stroke:none;stroke-width:7;stroke-miterlimit:4;stroke-dasharray:none;stroke-opacity:.22613065" id="rect876" width="272.4" height="275.593" x="-.761" y="-109.979"/></clipPath></defs><metadata id="metadata3097"/><g id="layer1" transform="translate(-104.76234,114.73583)"><path style="fill:none;fill-opacity:1;stroke:#444;stroke-width:30;stroke-linecap:butt;stroke-linejoin:miter;stroke-miterlimit:4;stroke-dasharray:none;stroke-opacity:1" id="path3655" d="m 12.063993,301.46734 c 0,0 -4.1936293,-240.01651 54.206383,-274.21354 64.280964,-37.64071 115.006234,22.97054 154.506924,-10.25393 51.76708,-43.54185 47.93055,-197.1907 47.93055,-197.1907" clip-path="url(#clipPath874)" transform="translate(110.81457,0.53453905)"/><path id="path3727" d="m 83.80822,155.84169 c -13.78268,0 -25.00018,-11.21715 -25.00018,-24.99982 0,-13.78303 11.2175,-25.00018 25.00018,-25.00018 13.782667,0 24.99982,11.21715 24.99982,25.00018 0,13.78267 -11.217153,24.99982 -24.99982,24.99982 z m 0,-34.21207 c -5.08361,0 16.04472,19.22937 -9.21225,9.21225 -4.72553,-1.87418 4.12864,9.21217 9.21225,9.21217 5.083621,0 9.212171,-4.12855 9.212171,-9.21217 0,-5.08361 -4.12855,-9.21225 -9.212171,-9.21225 z" clip-path="url(#clipPath870)" transform="translate(110.81457,0.53453905)" style="fill:#444;fill-opacity:1;stroke:#444;stroke-width:7;stroke-miterlimit:4;stroke-dasharray:none;stroke-opacity:1"/><path id="path3727-4" d="m 194.03786,-46.297343 c -13.78268,0 -25.00018,-11.21716 -25.00018,-24.999833 0,-13.78303 11.2175,-25.00018 25.00018,-25.00018 13.78267,0 24.99982,11.21715 24.99982,25.00018 0,13.782673 -11.21715,24.999833 -24.99982,24.999833 z m 0,-34.212083 c -5.08361,0 14.97564,19.095734 -9.21225,9.21225 -4.70592,-1.922898 4.12864,9.212173 9.21225,9.212173 5.08362,0 9.21217,-4.128553 9.21217,-9.212173 0,-5.08361 -4.12855,-9.21225 -9.21217,-9.21225 z" clip-path="url(#clipPath866)" transform="translate(110.81457,0.53453905)" style="fill:#444;fill-opacity:1;stroke:#444;stroke-width:7;stroke-miterlimit:4;stroke-dasharray:none;stroke-opacity:1"/><path id="path3727-4-9" d="m 37.017012,-8.5455199 c -13.78268,0 -25.00018,-11.2171601 -25.00018,-24.9998301 0,-13.783036 11.2175,-25.000186 25.00018,-25.000186 13.78267,0 24.99982,11.21715 24.99982,25.000186 0,13.78267 -11.21715,24.9998301 -24.99982,24.9998301 z m 0,-34.2120861 c -5.08361,0 14.842008,18.160296 -9.21225,9.212256 -4.764634,-1.77241 4.12864,9.21217 9.21225,9.21217 5.08362,0 9.21217,-4.12855 9.21217,-9.21217 0,-5.083616 -4.12855,-9.212256 -9.21217,-9.212256 z" clip-path="url(#clipPath862)" transform="translate(110.81457,0.53453905)" style="fill:#444;fill-opacity:1;stroke:#444;stroke-width:7;stroke-miterlimit:4;stroke-dasharray:none;stroke-opacity:1"/><path id="path3727-4-9-8" d="m 237.92375,108.73509 c -13.78268,0 -25.00018,-11.217161 -25.00018,-24.999831 0,-13.78303 11.2175,-25.00018 25.00018,-25.00018 13.78267,0 24.99982,11.21715 24.99982,25.00018 0,13.78267 -11.21715,24.999831 -24.99982,24.999831 z m 0,-34.212081 c -5.08361,0 14.84201,18.76165 -9.21225,9.21225 -4.7249,-1.87576 4.12864,9.21217 9.21225,9.21217 5.08362,0 9.21217,-4.12855 9.21217,-9.21217 0,-5.08361 -4.12855,-9.21225 -9.21217,-9.21225 z" clip-path="url(#clipPath858)" transform="translate(110.81457,0.53453905)" style="fill:#444;fill-opacity:1;stroke:#444;stroke-width:7;stroke-miterlimit:4;stroke-dasharray:none;stroke-opacity:1"/><path id="path3727-4-9-8-1" d="m 135.77309,98.56274 c -13.78268,0 -25.00018,-11.21717 -25.00018,-24.99984 0,-13.78303 11.2175,-25.00018 25.00018,-25.00018 13.78267,0 24.99983,11.21715 24.99983,25.00018 0,13.78267 -11.21716,24.99984 -24.99983,24.99984 z m 0,-34.21209 c -5.08361,0 16.84653,17.49212 -9.21225,9.21225 -4.84493,-1.53942 4.12864,9.21217 9.21225,9.21217 5.08362,0 9.21217,-4.12855 9.21217,-9.21217 0,-5.08361 -4.12855,-9.21225 -9.21217,-9.21225 z" clip-path="url(#clipPath854)" transform="translate(110.81457,0.53453905)" style="fill:#444;fill-opacity:1;stroke:#444;stroke-width:7;stroke-miterlimit:4;stroke-dasharray:none;stroke-opacity:1"/><path id="path3727-4-8" d="m 105.83891,-50.573666 c -13.782681,0 -25.000178,-11.21716 -25.000178,-24.999823 0,-13.78303 11.217497,-25.000181 25.000178,-25.000181 13.78267,0 24.99982,11.217151 24.99982,25.000181 0,13.782663 -11.21715,24.999823 -24.99982,24.999823 z m 0,-34.212073 c -2.23607,1.982467 13.13864,19.689384 -9.212251,9.21225 -4.602997,-2.157687 4.128641,9.21217 9.212251,9.21217 5.08362,0 9.21217,-4.12855 9.21217,-9.21217 0,-5.08361 -5.40828,-12.584728 -9.21217,-9.21225 z" clip-path="url(#clipPath850)" transform="translate(110.81457,0.53453905)" style="fill:#444;fill-opacity:1;stroke:#444;stroke-width:7;stroke-miterlimit:4;stroke-dasharray:none;stroke-opacity:1"/><text style="font-style:normal;font-variant:normal;font-weight:400;font-stretch:normal;font-size:264.69085693px;line-height:1.25;font-family:Roboto;-inkscape-font-specification:Roboto;letter-spacing:0;word-spacing:0;fill:#444;fill-opacity:1;stroke:none;stroke-width:1.37859821" id="text880" x="404.103" y="160.658" xml:space="preserve"><tspan id="tspan878" x="404.103" y="160.658" style="font-style:normal;font-variant:normal;font-weight:400;font-stretch:normal;font-size:264.69085693px;font-family:Roboto;-inkscape-font-specification:Roboto;fill:#444;fill-opacity:1;stroke-width:1.37859821">statsmodels</tspan></text></g></svg>